PathFileType	4	(X/Y/Z)	RBDS03\RBDS03runT35.trc
DataRate	CameraRate	NumFrames	NumMarkers	Units	OrigDataRate	OrigDataStartFrame	OrigNumFrames
150.000000	150.000000	5	33	mm	150.000000	3937	4500
Frame#	Time	L.ASIS			L.Heel.Bottom			L.Heel.Lateral			L.Heel.Top			L.Iliac.Crest			L.MT1			L.MT5			L.PSIS			L.Shank.Bottom.Lateral			L.Shank.Bottom.Medial			L.Shank.Top.Lateral			L.Shank.Top.Medial			L.Thigh.Bottom.Lateral			L.Thigh.Bottom.Medial			L.Thigh.Top.Lateral			L.Thigh.Top.Medial			R.ASIS			R.ASY			R.Heel.Bottom			R.Heel.Lateral			R.Heel.Top			R.Iliac.Crest			R.MT1			R.MT5			R.PSIS			R.Shank.Bottom.Lateral			R.Shank.Bottom.Medial			R.Shank.Top.Lateral			R.Shank.Top.Medial			R.Thigh.Bottom.Lateral			R.Thigh.Bottom.Medial			R.Thigh.Top.Lateral			R.Thigh.Top.Medial			
		X1	Y1	Z1	X2	Y2	Z2	X3	Y3	Z3	X4	Y4	Z4	X5	Y5	Z5	X6	Y6	Z6	X7	Y7	Z7	X8	Y8	Z8	X9	Y9	Z9	X10	Y10	Z10	X11	Y11	Z11	X12	Y12	Z12	X13	Y13	Z13	X14	Y14	Z14	X15	Y15	Z15	X16	Y16	Z16	X17	Y17	Z17	X18	Y18	Z18	X19	Y19	Z19	X20	Y20	Z20	X21	Y21	Z21	X22	Y22	Z22	X23	Y23	Z23	X24	Y24	Z24	X25	Y25	Z25	X26	Y26	Z26	X27	Y27	Z27	X28	Y28	Z28	X29	Y29	Z29	X30	Y30	Z30	X31	Y31	Z31	X32	Y32	Z32	X33	Y33	Z33	

3938	26.24666666666667	2395.390874426791	1096.513625576192	875.767570527152	2349.019462909323	118.5513525558625	956.5368242862131	2378.753032944037	126.2056909309426	906.5009917818851	2363.266643285737	167.1411865669596	952.6276851995963	2316.132276614651	1173.334749442425	836.8910117324954	2576.969396804378	123.6640627845942	973.2828660873381	2532.786325601466	107.4801440315995	872.7348391044403	2235.341190402546	1131.579339255507	945.7539948674646	2430.266785254902	256.1752367794623	886.3142585572779	2391.460730144595	264.626193882524	923.673187339992	2431.663971186456	334.1033902129274	869.1536278943598	2393.231882753471	343.5733786519633	905.6463131759284	2474.590839862184	684.248350028426	849.0258394474511	2411.886185845914	662.5676308935682	880.2715207075673	2428.791051235129	781.8381189770578	825.9423653554051	2367.985639299187	761.1430306438102	852.6903990889849	2412.408245438002	1085.105637210546	1084.104223702444	154483130436.7999	-4046878379.528464	-13459453998.98127	1708.431542232832	343.7282282283066	1000.125862388493	1733.044931349555	321.4690219348664	1053.159733635418	1755.375517449938	355.480775181356	1009.472433983535	2387.813875633083	1171.271753724013	1119.551372034151	1813.545446774615	154.5100477306868	986.4427505598525	1776.380175449461	172.8732431269439	1093.525291017755	2243.313065657117	1134.280031897459	1028.353312292364	1826.769492631238	361.6506837516171	1076.647251548127	1812.11186094746	384.8034327880798	1033.151794130865	1874.778158674589	429.4209994830049	1094.093406654083	1856.426773019523	450.3683116228755	1048.605122676758	2162.488381964866	706.579186300841	1130.987283357619	2103.994616452857	730.3694528381853	1094.237617896697	2193.832684129064	812.0737951257743	1145.415800380895	2139.646471564463	833.4267316668976	1108.824000801048	
3939	26.25333333333333	2395.574670854382	1096.999098767961	875.8131105350105	2373.563399615974	105.2853857682525	956.2970605669951	2402.73038246287	114.6970675551438	906.1734277818654	2384.161624201281	154.7559036029591	951.8857527191728	2316.19621242874	1173.150119900015	836.7069891452343	2600.297873123839	127.4068323103541	973.8046658497371	2557.94519107009	106.8562414428734	873.2743722831131	2236.094848134222	1132.623686714439	946.1298122429707	2444.794325442377	248.7722276705252	885.8755297329403	2405.579725433491	254.7339075253547	923.2016666145206	2441.23264516276	326.5334372930478	868.6262938713094	2402.244911687542	333.5422737341719	905.0331136541636	2466.258638693135	679.9328695499428	849.1979068887588	2403.865793870071	660.0943131985416	882.0663485266472	2422.068121236877	778.1854417476138	825.6916756872369	2361.592184500794	759.1936681020666	854.1136544013904	2413.530824170972	1087.545940984627	1084.296790700972	154614570457.2987	-4050318660.591657	-13470903372.91898	1698.069629396598	363.7197576897135	997.432786988554	1720.812081631689	341.2224336076054	1051.179155453931	1745.356342644414	373.4897517805432	1007.407071848123	2387.315736832533	1174.448894356512	1118.789368709051	1795.023926183077	169.8858961747765	988.1025801365887	1757.020623953305	191.5124361769525	1094.255520257806	2244.497143726359	1136.114004349721	1028.774111548219	1816.268774258856	376.8085315585695	1075.815552688288	1803.358308071653	400.3753253412457	1031.943296598976	1867.402394166082	442.2071654236461	1093.429168937512	1850.677962395845	463.7919945985516	1047.617578123669	2166.035198876803	706.8597459297139	1131.760248539326	2107.488403442483	730.065954919952	1094.706822343792	2196.586481201912	812.598420521372	1145.958395134968	2142.234120727503	833.4263368767114	1109.242601566363	
3940	26.26	2395.71160745245	1097.028539294229	876.0009245482946	2397.034347757636	93.83188568016533	955.7861644193157	2425.536961366433	104.9774851571412	905.5865143275026	2404.067960296176	143.9185797382501	950.9400742792425	2316.255909646347	1172.318672915293	836.5218876223007	2621.530145220824	132.1975720781889	974.0384013660318	2581.189540787499	107.7132596563078	873.5244345695735	2236.684743612882	1133.041198059383	946.5602312207137	2458.316297068003	242.4823901428954	885.3224799115623	2418.801091732673	245.9630294479006	922.5900575658251	2449.978185219589	319.8413623620298	868.0736024834405	2410.582522160022	324.3739131307755	904.3931422573652	2457.525004012872	675.3436523199899	849.4665749273574	2395.546265470683	657.4799985832643	884.115114795645	2414.97582694223	774.2275801789484	825.4058317517888	2354.907725674871	757.0375546043591	855.6355648585848	2414.555266466964	1089.424186910341	1084.582665532716	154746085012.7188	-4053760890.834453	-13482359238.00473	1688.915533761023	383.9950257296492	994.90223121457	1709.762556984874	361.278310910643	1049.307650897904	1736.451745796764	391.7121273220439	1005.514236917716	2385.942121085395	1176.948883177844	1118.383078783406	1777.090658380842	185.8866912811434	989.5913280301914	1738.543909769275	210.8270784459684	1094.902810923381	2245.533778340936	1137.238049956575	1029.28459433528	1806.820147932581	392.0608688186423	1075.093772136815	1795.595872098407	416.039253099771	1030.926860576557	1861.074404312766	454.8685847910006	1092.887516510178	1845.918725714032	477.0973274351069	1046.827965197572	2170.182425253079	706.189564158318	1132.477360628696	2111.549434037325	728.7436522288292	1095.134486105037	2199.776149698813	812.2209302206975	1146.48839519817	2145.240105490088	832.4602748370945	1109.645381664685	
3941	26.26666666666667	2395.793299072077	1096.645735583681	876.2979440711118	2418.96063689937	84.12709292937913	954.9975128334983	2446.73376291652	96.97032635938652	904.7465636279595	2422.582171214104	134.5951331026413	949.8102973306343	2316.31591093108	1170.954637259016	836.3439074769763	2640.41249893879	137.7108540187841	974.0088549547131	2602.18077334924	109.8074060626664	873.5041118382254	2237.105673014973	1132.852914198314	947.0511567532958	2470.619018315492	237.2772479238459	884.6809628527974	2430.889571222963	238.3341973846932	921.8536365039188	2457.772714268192	314.0517664360404	867.512197601388	2418.107417432635	316.1437651586402	903.7410866536529	2448.58598939838	670.633168759014	849.8555332121223	2387.098790572073	654.7984163115661	886.3379978872545	2407.6799253617	770.116347653948	825.1675939080546	2348.071713246381	754.7566913726284	857.2354930211826	2415.493856580275	1090.699294825899	1084.911826719303	154877674124.1873	-4057205070.808867	-13493821596.07805	1681.301955633402	404.5177246200951	992.6770489822992	1700.219078896633	381.5480638970907	1047.664944711855	1728.984863245203	410.0766828225401	1003.922701518889	2383.909956959142	1178.696778061061	1118.333112647296	1759.961837139391	202.4709705812473	990.8906916735135	1721.210188444581	230.6805279177391	1095.456868465589	2246.416320394162	1137.642863994123	1029.885038781556	1798.656622312708	407.2727292559996	1074.568346581061	1789.028924587461	431.6545066187935	1030.195002820825	1855.965739225643	467.2926286713255	1092.534126614291	1842.299171791423	490.160534949498	1046.305112590552	2174.785017840138	704.6584079499733	1133.151824147389	2116.060597544658	726.5106906576104	1095.5040168091	2203.292421946492	811.0161755942747	1147.003497272111	2148.582838600304	830.6197533519905	1110.009189905595	
3942	26.27333333333333	2395.801758174854	1095.885755951961	876.6660037477048	2438.868150096156	76.02558880048795	953.9483004949889	2465.887851521554	90.50823289535873	903.6795013487038	2439.301847316221	126.6786507681546	948.5289699481923	2316.364856359557	1169.162053468712	836.1819976744487	2656.726676633862	143.5482625979545	973.7636735438239	2620.617057254398	112.7877773390282	873.2577798868986	2237.347531780829	1132.083526610635	947.6070597073111	2481.495557269582	233.0554408314042	883.9791418331446	2441.611462489906	231.8018672327503	921.0102127559463	2464.497057728227	309.1243159313337	866.9529245683193	2424.679149785742	308.871868312243	903.0814749532361	2439.661544490623	665.9318650768362	850.3723245730685	2378.712884407797	652.0969670159253	888.6415215825061	2400.367960759318	765.9820193213864	825.0485127174571	2341.240781570701	752.4079327301215	858.8833359276684	2416.344376309968	1091.345567140597	1085.242977762101	155009337812.8311	-4060651201.066916	-13505290448.97849	1675.51612186355	425.2152491081549	990.8812518921551	1692.458134218085	401.9208836626947	1046.358976895189	1723.228137443015	428.4822303372343	1002.737298140399	2381.482898314546	1179.644619330644	1118.610827526707	1743.831771372826	219.5992993426262	991.9913738812795	1705.251505750154	250.9462275343087	1095.917052459067	2247.133179925122	1137.329745317716	1030.571334712995	1791.96546893719	422.3066622867481	1074.303912069529	1783.826224704634	447.080113681064	1029.815220030404	1852.219003431342	479.36163360594	1092.415337556728	1839.949075277237	502.8573270956396	1046.095570718652	2179.727699504059	702.3489871806513	1133.799302768457	2120.927218846159	723.4620252548627	1095.809665144383	2207.045085000001	809.0527933564363	1147.507346877341	2152.191079419941	827.9852994391174	1110.324296185103	
